<svg  data-name="Capa 1" xmlns="http://www.w3.org/2000/svg" width="417.2" height="175.4" viewBox="0 0 417.2 175.4">

  <g>
    <path   fill="white" d="M0,168.1V8.4A5.4,5.4,0,0,1,5.4,3H23.1a5.4,5.4,0,0,1,5.4,5.4v4.9a2,2,0,0,0,3,1.6C35,9.6,41.2,5.8,49.1,3c23.1-7.9,51.3,2.4,58.4,29.7a48.8,48.8,0,0,1,1.4,12.1v80.7a26.4,26.4,0,0,0,15.5,24.3c15.4,6.8,36.6,2.6,38.2-18.2V8.4A5.4,5.4,0,0,1,168,3h16.2a5.4,5.4,0,0,1,5.4,5.4V168.1a5.4,5.4,0,0,1-5.4,5.4H168.4a5.4,5.4,0,0,1-5.4-5.4h0a2.8,2.8,0,0,0-4.3-2.4l-8.8,5.3c-21.9,8.2-41.2,4.4-53.8-7.2a41.9,41.9,0,0,1-13-30.8V48.4c-.4-34.8-58.2-32-55,0V168a5.4,5.4,0,0,1-5.4,5.4H5.4A5.4,5.4,0,0,1,0,168.1Z"/>
    <rect  fill="white"  x="241.6" y="1" width="24.6" height="172.43" rx="4.1"/>
    <rect   fill="white" x="319.6" y="1" width="24.6" height="172.43" rx="4.1"/>
    <circle fill="white"  cx="393" cy="24.3" r="24.3"/>
  </g>
</svg>
