<svg width="43" height="43" viewBox="0 0 43 43" fill="none" xmlns="http://www.w3.org/2000/svg">
<path d="M42.1875 21.0938C42.1875 9.44437 32.7431 0 21.0938 0C9.74602 0 0.494297 8.96203 0.0217968 20.1937C0.0161718 20.3316 0.0147656 20.4715 0.0119531 20.61C0.00843747 20.7717 0 20.932 0 21.0938V21.1648C0 32.7755 9.44437 42.1875 21.0938 42.1875C32.7431 42.1875 42.1875 32.7755 42.1875 21.1648L42.1861 21.1303L42.1875 21.0938ZM25.3055 40.3249C24.9363 40.1245 24.582 39.7962 24.4378 39.349C24.177 38.539 24.3787 37.9104 24.6783 37.1791C24.9173 36.5934 24.596 35.917 24.7549 35.3039C25.065 34.1107 25.4391 32.8177 25.3237 31.5359C25.252 30.7491 25.0777 30.7132 24.4955 30.259C23.8816 29.7773 23.8816 29.096 23.471 28.4871C23.0991 27.9337 24.1003 25.8314 23.8212 25.7034C23.5083 25.5593 22.7967 25.7477 22.5717 25.4489C22.3298 25.1269 22.1611 24.7465 21.8285 24.4969C21.6141 24.3359 20.6655 23.7973 20.4124 23.8352C19.1377 24.0258 17.7567 22.7827 16.9432 21.972C16.3828 21.4158 16.1494 20.7921 15.7388 20.1488C15.3914 19.6038 14.8655 19.5567 14.6074 18.881C14.3367 18.1751 14.4977 17.2709 14.4155 16.5284C14.3262 15.7303 13.9296 15.4758 13.4339 14.8655C12.3736 13.5555 11.9834 11.6009 9.97172 11.6009C8.89102 11.6009 8.96766 13.9549 8.09719 13.6392C7.11281 13.2827 5.58984 14.9688 5.61164 14.7417C5.72695 13.5647 6.93562 12.9923 7.05375 12.6415C7.43977 11.4898 5.32898 11.7654 5.59969 10.8049C5.73187 10.3324 7.07484 9.98859 6.79711 9.70664C6.71344 9.62086 5.68617 8.90016 5.7368 8.8643C5.92734 8.7307 6.75563 9.15398 6.57563 8.60414C6.51516 8.42133 6.41742 8.25328 6.32461 8.08383C6.75152 7.59904 7.20206 7.13558 7.67461 6.69516C8.38758 6.6368 9.12727 6.68109 9.39516 6.73313C11.0939 7.06781 11.6845 7.92773 13.3833 7.29141C14.2003 6.98625 17.2118 7.5157 17.6435 8.37211C17.8784 8.84039 18.753 8.08875 19.0941 8.03813C19.4597 7.98328 20.2859 8.54648 20.5376 8.20125C21.2006 7.29352 20.1129 6.91664 21.3975 7.61555C22.2588 8.08453 23.9421 6.02227 23.4091 8.44594C23.0245 10.1932 21.6112 10.2319 20.5748 11.3702C19.5546 12.491 22.5935 12.7962 22.6716 13.8087C22.8966 16.7238 24.4512 13.571 24.0349 12.5346C23.2298 10.5272 24.9511 11.0784 25.6444 12.3539C26.029 13.062 26.3215 12.4657 26.7926 12.2189C27.1744 12.0199 27.2763 13.0978 27.3586 13.2855C27.6293 13.9092 28.5188 14.0955 28.3683 14.8985C28.2009 15.7837 27.5716 15.518 26.9564 15.6677C26.2695 15.8344 27.0675 16.4123 26.9677 16.6233C26.8594 16.8539 26.0311 16.9495 25.8103 17.0803C25.1606 17.4628 25.5579 18.2088 25.0495 18.6096C24.7008 18.8852 24.3492 18.7059 24.2817 19.222C24.2023 19.8302 23.0815 20.0257 23.227 20.6072C23.2671 20.7668 23.5898 21.9593 23.3866 22.0226C23.2931 22.0528 22.5541 20.9855 22.3523 20.8786C21.953 20.667 20.1375 20.8399 19.9041 22.0416C19.7529 22.8185 21.003 24.0455 21.3216 22.9753C21.716 21.6584 21.9037 23.7424 21.8088 23.824C21.9973 23.9885 23.0998 23.5533 22.7728 24.3162C22.6343 24.6389 22.9085 25.4805 23.3979 25.2211C23.6025 25.1128 24.1298 25.4391 24.222 25.264C24.3543 25.0623 24.5333 24.8954 24.7437 24.7774C25.2366 24.4891 25.9741 24.7598 26.5141 24.7915C26.8439 24.8105 29.5467 26.2849 29.5615 26.5809C29.6205 27.6884 31.6638 27.5442 31.9774 27.9401C32.8205 29.013 32.561 28.4681 31.9458 29.8427C31.6357 30.5346 31.9057 31.3833 31.1548 31.8846C30.7934 32.1251 30.3525 32.0048 30.0312 32.3452C29.7415 32.6524 29.8554 33.0195 29.6796 33.3745C29.468 33.7971 26.6238 36.353 26.4361 36.971C26.3426 37.2811 25.4939 37.5511 26.2097 37.8485C26.6259 37.9709 25.2879 39.2358 25.9313 39.7596C26.088 39.8869 26.1907 39.9945 26.268 40.0908C25.9467 40.1766 25.6282 40.2546 25.3055 40.3249V40.3249ZM23.6208 1.57289C23.5934 1.67484 23.6348 1.79508 23.8113 1.9125C24.2093 2.17617 23.6974 2.76187 23.1483 2.3843C22.6005 2.00672 21.3687 2.55375 21.4538 2.83711C21.5374 3.12047 21.9178 3.23297 22.5056 3.00727C23.092 2.78086 23.3339 3.04102 23.4323 3.30961C23.4998 3.49172 23.4323 3.59297 23.4134 3.83836C23.3958 4.08375 22.713 3.91359 22.1456 3.95227C21.5768 3.99023 20.9714 3.83836 20.989 3.51703C21.008 3.19641 20.3836 2.6107 20.0109 2.36602C19.639 2.12133 20.1741 1.59258 20.6677 1.98844C21.1591 2.385 21.1788 1.9132 21.747 1.76273C22.0697 1.67695 21.9403 1.54828 21.8306 1.42594C22.4353 1.44703 23.0316 1.49766 23.6208 1.57289ZM26.0937 7.80891C26.5191 7.92422 27.258 8.46211 27.258 8.71664C27.258 8.97188 26.9227 9.29109 26.7743 9.25453C25.7034 8.99367 24.8006 7.93688 24.3035 7.3582C23.4359 6.34922 23.4907 7.21406 22.1161 6.77742C21.7645 6.66492 21.207 5.57438 21.5761 5.03648C21.9452 4.49859 22.3713 4.41352 22.7116 4.55625C23.052 4.69687 24.0462 4.10273 24.2747 4.81078C24.5011 5.51883 25.1262 6.42234 25.695 6.66422C26.2645 6.90469 25.6669 7.69359 26.0937 7.80891V7.80891ZM26.4347 11.0946C26.6048 11.4342 25.4116 10.698 25.1276 10.3584C24.8449 10.0195 24.4174 9.25383 24.7598 8.91422C25.1002 8.57531 25.8637 9.62086 26.2652 9.84937C27.0591 10.3029 26.2645 10.7557 26.4347 11.0946V11.0946ZM20.392 5.95125C20.4743 5.83805 20.6487 6.12141 20.8041 6.40477C20.9595 6.68813 20.745 7.0875 20.392 7.02703C20.0391 6.96797 20.1945 6.22828 20.392 5.95125ZM20.392 3.10219C20.392 3.10219 20.7246 3.91359 20.392 3.78141C20.0595 3.64922 20.0433 3.30961 20.392 3.10219ZM20.4595 5.66859C20.3646 5.44289 20.3428 4.51547 20.5734 4.23422C20.9138 3.81938 21.4636 4.63078 21.0938 4.95141C20.7246 5.27273 20.5537 5.8957 20.4595 5.66859V5.66859ZM16.1866 6.66352C15.5686 6.61922 15.5552 6.08484 15.4695 5.80148C15.3837 5.51813 14.8718 6.33938 14.3543 5.80148C13.8368 5.26359 14.4752 4.55625 14.3613 4.13086C14.2474 3.70617 15.582 4.13086 15.7816 4.13086C15.9813 4.13086 16.5206 5.00836 16.662 4.99359C16.8047 4.97953 17.5711 5.68758 17.5711 5.40422C17.5711 5.12156 17.6878 4.63922 18.225 4.58297C19.0491 4.49789 18.3101 5.4893 18.2812 5.87531C18.2538 6.26133 18.9077 6.93281 19.1475 7.21617C19.3894 7.49953 18.5379 7.69852 18.3952 7.52766C18.2538 7.3575 17.884 7.52766 17.5711 7.75406C17.2596 7.98047 16.4067 7.44258 16.0095 7.27242C15.6115 7.10297 16.8047 6.70711 16.1866 6.66352V6.66352ZM18.3952 2.19586C18.9443 2.385 19.2565 2.55445 19.5265 2.19586C19.7873 1.84992 19.9863 2.95031 19.7972 3.25195C19.6073 3.555 19.248 3.47977 19.1904 3.25195C19.1341 3.02695 17.846 2.00672 18.3952 2.19586V2.19586ZM19.1904 5.61234C19.002 5.36625 18.983 5.08359 19.1904 4.87617C19.3992 4.66875 19.3317 4.42336 19.703 4.34813C19.8858 4.31016 19.9104 4.59281 19.9104 4.85719C19.9104 5.12156 20.1382 5.46117 19.9104 5.87531C19.6833 6.28945 19.3802 5.85703 19.1904 5.61234ZM20.7408 1.41539C20.7323 1.46742 20.6979 1.49836 20.6114 1.48992C20.5519 1.47984 20.4953 1.45705 20.4455 1.42313C20.5446 1.41961 20.6416 1.4168 20.7408 1.41539ZM16.4454 2.21484C16.8806 2.21484 16.8244 2.50875 17.1844 2.72039C17.5444 2.93133 17.3545 1.62914 17.6006 2.11992C17.8467 2.61 18.5773 3.28992 18.2257 3.42141C17.9234 3.53602 16.6549 4.02539 16.541 3.94102C16.4271 3.85664 16.2759 3.49805 15.9722 3.42141C15.6684 3.34617 15.3471 2.62898 15.1383 2.64797C15.0588 2.655 15.0518 2.51859 15.1038 2.33719C15.469 2.21962 15.8376 2.11293 16.2091 2.01727C16.2499 2.12836 16.3118 2.21484 16.4454 2.21484V2.21484ZM25.9509 23.3262C25.4974 23.7945 24.7162 22.9999 24.177 23.028C23.6377 23.0562 23.367 22.4902 22.8987 22.5471C22.429 22.6027 23.0266 21.9516 23.6798 22.2926C24.3316 22.6322 26.3208 22.943 25.9509 23.3262V23.3262ZM35.0423 7.2007C34.9102 7.36945 34.7597 7.48758 34.6155 7.61203C34.1902 7.98047 33.3949 7.95234 33.281 8.20687C33.1671 8.46141 32.883 9.25383 31.8888 9.25734C30.8946 9.26016 31.1787 10.7557 31.0936 11.1825C31.0085 11.6093 30.7821 12.1141 30.4973 11.7457C30.2133 11.378 30.0994 11.5186 29.2205 10.4428C28.3416 9.36703 28.6791 8.77289 28.9638 8.46141C29.2479 8.15063 29.3618 7.41375 28.9638 7.52695C28.5659 7.64016 28.3387 7.38492 28.4238 7.03266C28.5089 6.68039 28.935 6.42305 28.4238 6.04688C27.9127 5.67141 28.196 4.32773 27.7987 3.10148C27.4008 1.87453 26.8608 2.74289 25.9805 2.79C25.1002 2.83711 24.9574 2.17617 25.3554 1.87383C29.0276 2.68589 32.3896 4.53469 35.0423 7.2007" fill="#794BFF"/>
</svg>
