<svg width="42" height="40" viewBox="0 0 42 40" fill="none" xmlns="http://www.w3.org/2000/svg">
<path d="M4.33335 0.25C2.02085 0.25 0.166687 2.10417 0.166687 4.41667V25.25C0.166687 26.3551 0.605674 27.4149 1.38708 28.1963C2.16848 28.9777 3.22829 29.4167 4.33335 29.4167H21V39.8333L27.25 33.5833L33.5 39.8333V29.4167H37.6667C38.7718 29.4167 39.8316 28.9777 40.613 28.1963C41.3944 27.4149 41.8334 26.3551 41.8334 25.25V4.41667C41.8334 3.3116 41.3944 2.25179 40.613 1.47039C39.8316 0.688987 38.7718 0.25 37.6667 0.25H4.33335ZM21 4.41667L27.25 8.58333L33.5 4.41667V11.7083L39.75 14.8333L33.5 17.9583V25.25L27.25 21.0833L21 25.25V17.9583L14.75 14.8333L21 11.7083V4.41667ZM4.33335 4.41667H14.75V8.58333H4.33335V4.41667ZM4.33335 12.75H10.5834V16.9167H4.33335V12.75ZM4.33335 21.0833H14.75V25.25H4.33335V21.0833Z" fill="#794BFF"/>
</svg>
