<svg width="39" height="41" viewBox="0 0 39 41" fill="none" xmlns="http://www.w3.org/2000/svg">
<path d="M28.75 17.625C29.3875 17.625 30.0063 17.6812 30.625 17.775V4.5C30.625 2.4375 28.9375 0.75 26.875 0.75H4.375C2.3125 0.75 0.625 2.4375 0.625 4.5V34.5C0.625 36.5625 2.3125 38.25 4.375 38.25H17.9875C16.6141 36.2833 15.8063 33.9776 15.6521 31.5838C15.4979 29.19 16.0031 26.7997 17.1129 24.6731C18.2226 22.5464 19.8943 20.7648 21.9461 19.5221C23.9979 18.2795 26.3512 17.6233 28.75 17.625V17.625ZM8.125 17.625V4.5H17.5V17.625L12.8125 14.8125L8.125 17.625Z" fill="#794BFF"/>
<path d="M28.75 21.375C23.575 21.375 19.375 25.575 19.375 30.75C19.375 35.925 23.575 40.125 28.75 40.125C33.925 40.125 38.125 35.925 38.125 30.75C38.125 25.575 33.925 21.375 28.75 21.375ZM26.4062 35.4375V26.0625L33.9062 30.75L26.4062 35.4375Z" />
</svg>
